<svg width="261" height="66" viewBox="0 0 261 66" fill="none" xmlns="http://www.w3.org/2000/svg">
<g clip-path="url(#clip0_762_19)">
<path fill-rule="evenodd" clip-rule="evenodd" d="M53.3088 49.0558C53.8809 56.4055 53.8809 59.8508 53.8809 63.6113H36.8875C36.8875 62.7923 36.9021 62.0428 36.9169 61.283C36.9629 58.9207 37.0109 56.4576 36.6284 51.4833C36.123 44.2008 32.9891 42.5825 27.2267 42.5825H22.1215H0.5V29.3323H28.0355C35.3142 29.3323 38.9536 27.1166 38.9536 21.2501C38.9536 16.0917 35.3142 12.9656 28.0355 12.9656H0.5V0H31.0683C47.5466 0 55.7352 7.78824 55.7352 20.2292C55.7352 29.5346 49.973 35.6034 42.1888 36.6148C48.7598 37.9297 52.6014 41.6721 53.3088 49.0558Z" fill="white"/>
<path d="M0.5 63.6113V53.7338H18.4679C21.4691 53.7338 22.1208 55.9614 22.1208 57.2897V63.6113H0.5Z" fill="white"/>
<path d="M258.74 18.6107H241.873L234.197 29.3321L226.723 18.6107H208.644L224.905 40.7618L207.23 63.722H224.097L233.086 51.4833L242.075 63.722H260.154L242.378 40.0538L258.74 18.6107Z" fill="url(#paint0_linear_762_19)"/>
<path d="M258.74 18.6107H241.873L234.197 29.3321L226.723 18.6107H208.644L224.905 40.7618L207.23 63.722H224.097L233.086 51.4833L242.075 63.722H260.154L242.378 40.0538L258.74 18.6107Z" fill="white"/>
<path d="M91.0187 47.6397C89.5036 51.1799 86.6756 52.6971 82.2315 52.6971C77.2825 52.6971 73.2424 50.0673 72.8384 44.5042H104.452V39.9527C104.452 27.7139 96.4727 17.397 81.4235 17.397C67.3843 17.397 56.8801 27.6127 56.8801 41.8744C56.8801 56.2372 67.1823 64.9357 81.6255 64.9357C93.5437 64.9357 101.826 59.1704 104.149 48.8535L91.0187 47.6397ZM73.0404 36.6147C73.6464 32.3666 75.9694 29.1299 81.2215 29.1299C86.0696 29.1299 88.6956 32.5689 88.8976 36.6147H73.0404Z" fill="url(#paint1_linear_762_19)"/>
<path d="M91.0187 47.6397C89.5036 51.1799 86.6756 52.6971 82.2315 52.6971C77.2825 52.6971 73.2424 50.0673 72.8384 44.5042H104.452V39.9527C104.452 27.7139 96.4727 17.397 81.4235 17.397C67.3843 17.397 56.8801 27.6127 56.8801 41.8744C56.8801 56.2372 67.1823 64.9357 81.6255 64.9357C93.5437 64.9357 101.826 59.1704 104.149 48.8535L91.0187 47.6397ZM73.0404 36.6147C73.6464 32.3666 75.9694 29.1299 81.2215 29.1299C86.0696 29.1299 88.6956 32.5689 88.8976 36.6147H73.0404Z" fill="white"/>
<path d="M152.498 26.2978C150.579 21.0382 146.438 17.397 138.459 17.397C131.691 17.397 126.843 20.4314 124.419 25.3875V18.6107H108.057V63.722H124.419V41.571C124.419 34.7941 126.338 30.3437 131.691 30.3437C136.641 30.3437 137.853 33.5803 137.853 39.7504V63.722H154.215V41.571C154.215 34.7941 156.033 30.3437 161.487 30.3437C166.436 30.3437 167.547 33.5803 167.547 39.7504V63.722H183.909V35.401C183.909 25.9944 180.273 17.397 167.85 17.397C160.275 17.397 154.922 21.2405 152.498 26.2978Z" fill="url(#paint2_linear_762_19)"/>
<path d="M152.498 26.2978C150.579 21.0382 146.438 17.397 138.459 17.397C131.691 17.397 126.843 20.4314 124.419 25.3875V18.6107H108.057V63.722H124.419V41.571C124.419 34.7941 126.338 30.3437 131.691 30.3437C136.641 30.3437 137.853 33.5803 137.853 39.7504V63.722H154.215V41.571C154.215 34.7941 156.033 30.3437 161.487 30.3437C166.436 30.3437 167.547 33.5803 167.547 39.7504V63.722H183.909V35.401C183.909 25.9944 180.273 17.397 167.85 17.397C160.275 17.397 154.922 21.2405 152.498 26.2978Z" fill="white"/>
<path d="M189.261 18.6109V63.722H205.623V18.6109H189.261ZM189.16 14.3627H205.724V0H189.16V14.3627Z" fill="url(#paint3_linear_762_19)"/>
<path d="M189.261 18.6109V63.722H205.623V18.6109H189.261ZM189.16 14.3627H205.724V0H189.16V14.3627Z" fill="white"/>
</g>
<defs>
<linearGradient id="paint0_linear_762_19" x1="233.692" y1="18.6107" x2="233.692" y2="63.722" gradientUnits="userSpaceOnUse">
<stop/>
<stop offset="1" stop-opacity="0"/>
</linearGradient>
<linearGradient id="paint1_linear_762_19" x1="80.666" y1="17.397" x2="80.666" y2="64.9357" gradientUnits="userSpaceOnUse">
<stop/>
<stop offset="1" stop-opacity="0"/>
</linearGradient>
<linearGradient id="paint2_linear_762_19" x1="145.983" y1="17.397" x2="145.983" y2="63.722" gradientUnits="userSpaceOnUse">
<stop/>
<stop offset="1" stop-opacity="0"/>
</linearGradient>
<linearGradient id="paint3_linear_762_19" x1="197.442" y1="0" x2="197.442" y2="63.722" gradientUnits="userSpaceOnUse">
<stop/>
<stop offset="1" stop-opacity="0"/>
</linearGradient>
<clipPath id="clip0_762_19">
<rect width="260" height="65.1917" fill="white" transform="translate(0.5)"/>
</clipPath>
</defs>
</svg>
